# xmcd CD database file
#
# Track frame offsets:
#	150
#	21545
#	48420
#	74350
#	102360
#	128987
#	152015
#	179675
#	209207
#	237477
#	267555
#
# Disc length: 3881 seconds
#
# Revision: 5
# Processed by: cddbd v1.5.2PL0 Copyright (c) Steve Scherf et al.
# Submitted via: CDex 1.70beta2
#
DISCID=b10f270b
DTITLE=Skip Adams and Ron Fish - Wolf Magic (Nature's Harmony)
DYEAR=1995
DGENRE=New Age
TTITLE0=Yukon Timberline
TTITLE1=Footprints In The Snow
TTITLE2=Across The Great Divide
TTITLE3=Mystic Mountain
TTITLE4=Springtime
TTITLE5=The Chase
TTITLE6=Winter Pups
TTITLE7=Windrunner
TTITLE8=Meeting At The River
TTITLE9=Ode To The Wolf
TTITLE10=King Of The Wilderness
EXTD=YEAR: 1995
EXTT0=
EXTT1=
EXTT2=
EXTT3=
EXTT4=
EXTT5=
EXTT6=
EXTT7=
EXTT8=
EXTT9=
EXTT10=
PLAYORDER=
